<svg width="48" height="48" viewBox="0 0 48 48" fill="none" xmlns="http://www.w3.org/2000/svg">
<path id="Vector" d="M13.726 3.28321C16.7301 1.98038 20.1038 1.25 23.6659 1.25C36.1936 1.25 46.3866 10.2963 46.3866 21.4152C46.3866 32.5342 36.1936 41.5804 23.6659 41.5804C21.0495 41.5804 18.4851 41.1874 16.0427 40.414L9.36348 46.2193C9.13917 46.4131 8.85204 46.5208 8.55415 46.5208C8.38008 46.5208 8.20421 46.4831 8.0445 46.4113C7.60663 46.2121 7.3231 45.7725 7.3231 45.2915V35.4162C3.21002 31.6369 0.945312 26.6696 0.945312 21.4152C0.945312 18.6355 1.58237 15.9849 2.73267 13.5731" stroke="white" stroke-width="1.43563" stroke-linecap="round" stroke-linejoin="round"/>
</svg>
