<svg width="70" height="288" viewBox="0 0 70 288" fill="none" xmlns="http://www.w3.org/2000/svg">
<path d="M67.5333 24.2422C68.129 22.8705 68.5947 21.2569 68.9038 19.4936C69.213 17.7302 69.3595 15.8516 69.3349 13.9651C69.3104 12.0786 69.1153 10.221 68.7609 8.4985C68.4064 6.776 67.8995 5.22226 67.2691 3.92602C66.6387 2.62977 65.8971 1.6164 65.0867 0.943759C64.2763 0.271118 63.413 -0.0476202 62.546 0.00574719C61.6789 0.0591146 60.8252 0.48354 60.0336 1.25479C59.242 2.02604 58.5279 3.12901 57.9322 4.50073L1.80494 133.812C0.645835 136.48 0 140.011 0 143.683C0 147.354 0.645835 150.886 1.80494 153.553L57.9322 282.879C58.524 284.281 59.2379 285.413 60.0324 286.209C60.827 287.005 61.6863 287.45 62.5606 287.518C63.4348 287.585 64.3065 287.274 65.125 286.603C65.9435 285.931 66.6925 284.912 67.3285 283.605C67.9646 282.299 68.4749 280.73 68.8299 278.99C69.185 277.251 69.3776 275.375 69.3967 273.472C69.4157 271.569 69.2608 269.677 68.9409 267.905C68.621 266.133 68.1425 264.518 67.5333 263.152L15.6849 143.683L67.5333 24.2422Z" fill="black" fill-opacity="0.49"/>
</svg>
