<svg width="41" height="42" viewBox="0 0 41 42" fill="none" xmlns="http://www.w3.org/2000/svg">
<rect x="0.148438" y="0.142578" width="40.4671" height="41.1042" rx="20.2335" fill="white" fill-opacity="0.27"/>
<path d="M19.6606 16.5884L20.2346 16.0144C20.4956 15.7796 20.8869 15.7796 21.1218 16.0144L26.2096 21.0762C26.4444 21.3371 26.4444 21.7285 26.2096 21.9633L21.1218 27.0511C20.8869 27.286 20.4956 27.286 20.2346 27.0511L19.6606 26.4771C19.4258 26.2162 19.4258 25.8248 19.6606 25.5639L22.8177 22.5634H15.3294C14.9642 22.5634 14.7032 22.3025 14.7032 21.9372V21.1023C14.7032 20.7631 14.9642 20.4761 15.3294 20.4761H22.8177L19.6606 17.5016C19.4258 17.2407 19.3997 16.8493 19.6606 16.5884Z" fill="white"/>
</svg>
