<svg width="70" height="288" viewBox="0 0 70 288" fill="none" xmlns="http://www.w3.org/2000/svg">
<path d="M1.86518 263.285C1.26945 264.657 0.803726 266.27 0.494598 268.034C0.185463 269.797 0.0389786 271.676 0.0634995 273.562C0.088028 275.449 0.283089 277.306 0.637543 279.029C0.991989 280.751 1.49889 282.305 2.12931 283.601C2.75973 284.898 3.5013 285.911 4.31171 286.584C5.12212 287.256 5.98547 287.575 6.85248 287.522C7.71949 287.468 8.57319 287.044 9.36482 286.273C10.1565 285.501 10.8705 284.398 11.4662 283.027L67.5935 153.715C68.7526 151.048 69.3984 147.516 69.3984 143.845C69.3984 140.174 68.7526 136.642 67.5935 133.974L11.4662 4.64838C10.8744 3.24661 10.1605 2.11469 9.366 1.31836C8.57146 0.522034 7.71212 0.0771484 6.83789 0.00958252C5.96366 -0.0580139 5.09197 0.253052 4.27346 0.924683C3.45495 1.59631 2.70592 2.61514 2.0699 3.92197C1.43388 5.22879 0.923523 6.79758 0.568497 8.5372C0.213463 10.2768 0.0208359 12.1526 0.00178528 14.0556C-0.0172577 15.9586 0.137657 17.8508 0.457542 19.6224C0.777428 21.394 1.25591 23.0097 1.86518 24.3755L53.7136 143.845L1.86518 263.285Z" fill="black" fill-opacity="0.49"/>
</svg>
