<svg width="374" height="87" viewBox="0 0 374 87" fill="none" xmlns="http://www.w3.org/2000/svg">
<path d="M0.521625 72V0.479994H45.8336V14.784H17.7056V28.032H41.6096V42.432H17.7056V57.6H46.8896V72H0.521625ZM72.5744 72.896C63.1024 72.896 55.8064 66.112 55.8064 54.464C55.8064 42.688 63.9344 35.904 73.2144 35.904C77.6944 35.904 80.9584 37.696 83.4544 40L79.8704 44.736C77.9504 43.072 75.9664 42.048 73.5984 42.048C67.5824 42.048 63.4224 46.976 63.4224 54.464C63.4224 61.888 67.4544 66.816 73.3424 66.816C76.2864 66.816 78.9104 65.408 81.0224 63.616L84.0304 68.544C80.8304 71.36 76.6704 72.896 72.5744 72.896ZM103.507 72.896C94.7394 72.896 86.9314 66.112 86.9314 54.464C86.9314 42.688 94.7394 35.904 103.507 35.904C112.211 35.904 120.083 42.688 120.083 54.464C120.083 66.112 112.211 72.896 103.507 72.896ZM103.507 66.816C109.011 66.816 112.531 61.888 112.531 54.464C112.531 46.976 109.011 42.048 103.507 42.048C97.9394 42.048 94.5474 46.976 94.5474 54.464C94.5474 61.888 97.9394 66.816 103.507 66.816ZM144.329 72V32.384C144.329 25.216 147.657 20.16 155.465 20.16C157.897 20.16 160.137 20.672 161.737 21.312L160.265 26.944C158.985 26.304 157.641 26.048 156.361 26.048C153.289 26.048 151.689 28.096 151.689 32.384V72H144.329ZM139.529 42.688V37.184L144.713 36.8H158.857V42.688H139.529ZM165.238 72V36.8H171.254L171.894 43.136H172.086C174.582 38.592 178.294 35.904 182.07 35.904C183.798 35.904 184.886 36.16 185.974 36.672L184.694 43.072C183.478 42.688 182.582 42.496 181.11 42.496C178.294 42.496 174.838 44.544 172.662 50.112V72H165.238ZM191.426 72V36.8H198.85V72H191.426ZM195.138 30.208C192.386 30.208 190.594 28.48 190.594 25.792C190.594 23.168 192.386 21.44 195.138 21.44C197.826 21.44 199.746 23.168 199.746 25.792C199.746 28.48 197.826 30.208 195.138 30.208ZM224.583 72.896C214.983 72.896 207.431 66.048 207.431 54.464C207.431 43.008 215.303 35.904 223.495 35.904C232.775 35.904 237.831 42.624 237.831 52.608C237.831 54.08 237.703 55.488 237.511 56.384H214.663C215.239 63.104 219.463 67.072 225.543 67.072C228.679 67.072 231.303 66.112 233.927 64.448L236.487 69.184C233.223 71.36 229.191 72.896 224.583 72.896ZM214.535 51.264H231.431C231.431 45.184 228.743 41.728 223.623 41.728C219.207 41.728 215.303 45.12 214.535 51.264ZM246.113 72V36.8H252.129L252.769 41.728H252.961C256.161 38.528 259.809 35.904 264.609 35.904C272.097 35.904 275.425 40.96 275.425 49.856V72H268.001V50.816C268.001 44.672 266.209 42.304 262.113 42.304C258.849 42.304 256.609 43.968 253.537 47.04V72H246.113ZM298.211 72.896C289.379 72.896 283.747 66.112 283.747 54.464C283.747 43.008 290.979 35.904 298.787 35.904C302.819 35.904 305.443 37.44 308.259 39.872L307.939 34.048V21.056H315.363V72H309.283L308.707 68.096H308.515C305.827 70.784 302.179 72.896 298.211 72.896ZM300.003 66.752C302.883 66.752 305.443 65.408 307.939 62.464V45.312C305.379 42.944 302.883 42.048 300.259 42.048C295.331 42.048 291.363 46.784 291.363 54.336C291.363 62.336 294.499 66.752 300.003 66.752ZM333.723 72.896C328.347 72.896 326.363 69.44 326.363 63.744V21.056H333.787V64.128C333.787 66.112 334.619 66.816 335.515 66.816C335.835 66.816 336.091 66.816 336.731 66.688L337.691 72.256C336.731 72.576 335.579 72.896 333.723 72.896ZM347.09 86.72C345.298 86.72 343.89 86.464 342.674 86.016L344.082 80.256C344.722 80.512 345.746 80.768 346.642 80.768C350.418 80.768 352.722 77.952 354.002 74.176L354.706 71.744L340.754 36.8H348.306L354.77 54.912C355.858 58.048 356.882 61.568 358.034 64.896H358.354C359.186 61.632 360.146 58.176 361.042 54.912L366.738 36.8H373.906L360.978 74.176C358.226 81.664 354.514 86.72 347.09 86.72Z" fill="#79AD4B"/>
</svg>
