<svg width="642" height="75" viewBox="0 0 642 75" fill="none" xmlns="http://www.w3.org/2000/svg">
<path d="M0.73775 73V25.896H16.1618C25.8898 25.896 33.1858 29.352 33.1858 39.592C33.1858 49.448 25.8898 53.992 16.1618 53.992H8.22575V73H0.73775ZM8.22575 48.04H15.3298C22.1138 48.04 25.8258 45.224 25.8258 39.592C25.8258 33.896 22.1138 31.912 15.3298 31.912H8.22575V48.04ZM26.5298 73L14.7538 52.072L20.2578 47.72L34.8498 73H26.5298ZM55.8178 73.896C46.2178 73.896 38.6658 67.048 38.6658 55.464C38.6658 44.008 46.5378 36.904 54.7298 36.904C64.0098 36.904 69.0658 43.624 69.0658 53.608C69.0658 55.08 68.9378 56.488 68.7458 57.384H45.8978C46.4738 64.104 50.6978 68.072 56.7778 68.072C59.9138 68.072 62.5378 67.112 65.1618 65.448L67.7218 70.184C64.4578 72.36 60.4258 73.896 55.8178 73.896ZM45.7698 52.264H62.6658C62.6658 46.184 59.9778 42.728 54.8578 42.728C50.4418 42.728 46.5378 46.12 45.7698 52.264ZM84.7078 73.896C79.3318 73.896 77.3478 70.44 77.3478 64.744V22.056H84.7718V65.128C84.7718 67.112 85.6038 67.816 86.4998 67.816C86.8198 67.816 87.0758 67.816 87.7158 67.688L88.6758 73.256C87.7158 73.576 86.5638 73.896 84.7078 73.896ZM96.4103 73V37.8H103.834V73H96.4103ZM100.122 31.208C97.3703 31.208 95.5783 29.48 95.5783 26.792C95.5783 24.168 97.3703 22.44 100.122 22.44C102.81 22.44 104.73 24.168 104.73 26.792C104.73 29.48 102.81 31.208 100.122 31.208ZM123.168 73.896C117.152 73.896 112.864 69.864 112.864 63.656C112.864 56.104 119.264 52.2 133.856 50.6C133.792 46.504 132.32 42.92 127.2 42.92C123.488 42.92 119.968 44.648 117.024 46.568L114.272 41.512C117.856 39.272 122.848 36.904 128.48 36.904C137.248 36.904 141.28 42.472 141.28 51.88V73H135.2L134.624 69.032H134.368C131.168 71.784 127.392 73.896 123.168 73.896ZM125.472 68.008C128.544 68.008 130.976 66.6 133.856 63.912V55.336C123.424 56.552 119.968 59.176 119.968 63.144C119.968 66.6 122.336 68.008 125.472 68.008ZM168.108 73.896C164.908 73.896 161.324 72.232 158.38 69.352H158.124L157.484 73H151.66V22.056H159.084V35.496L158.764 41.512C161.836 38.888 165.548 36.904 169.324 36.904C178.22 36.904 183.276 44.008 183.276 54.824C183.276 66.92 176.044 73.896 168.108 73.896ZM166.7 67.752C171.756 67.752 175.66 63.208 175.66 54.952C175.66 47.592 173.228 43.048 167.34 43.048C164.652 43.048 161.964 44.52 159.084 47.336V64.552C161.708 66.92 164.524 67.752 166.7 67.752ZM199.27 73.896C193.894 73.896 191.91 70.44 191.91 64.744V22.056H199.334V65.128C199.334 67.112 200.166 67.816 201.062 67.816C201.382 67.816 201.638 67.816 202.278 67.688L203.238 73.256C202.278 73.576 201.126 73.896 199.27 73.896ZM225.693 73.896C216.093 73.896 208.541 67.048 208.541 55.464C208.541 44.008 216.413 36.904 224.605 36.904C233.885 36.904 238.941 43.624 238.941 53.608C238.941 55.08 238.813 56.488 238.621 57.384H215.773C216.349 64.104 220.573 68.072 226.653 68.072C229.789 68.072 232.413 67.112 235.037 65.448L237.597 70.184C234.333 72.36 230.301 73.896 225.693 73.896ZM215.645 52.264H232.541C232.541 46.184 229.853 42.728 224.733 42.728C220.317 42.728 216.413 46.12 215.645 52.264ZM295.358 74.344C276.062 74.344 261.278 61.48 261.278 37.768C261.278 14.344 276.446 0.711998 295.358 0.711998C305.534 0.711998 312.638 5.128 317.246 9.736L309.758 18.856C306.206 15.496 302.174 12.904 295.838 12.904C283.934 12.904 275.774 22.12 275.774 37.288C275.774 52.84 282.878 62.056 296.798 62.056C300.254 62.056 303.71 61.096 305.726 59.464V45.448H293.054V33.832H318.398V65.8C313.598 70.6 305.15 74.344 295.358 74.344ZM344.554 73.896C335.786 73.896 327.978 67.112 327.978 55.464C327.978 43.688 335.786 36.904 344.554 36.904C353.258 36.904 361.13 43.688 361.13 55.464C361.13 67.112 353.258 73.896 344.554 73.896ZM344.554 67.816C350.058 67.816 353.578 62.888 353.578 55.464C353.578 47.976 350.058 43.048 344.554 43.048C338.986 43.048 335.594 47.976 335.594 55.464C335.594 62.888 338.986 67.816 344.554 67.816ZM376.904 73L364.488 37.8H372.04L377.992 56.744C379.016 60.2 380.04 63.784 381.064 67.24H381.384C382.408 63.784 383.432 60.2 384.456 56.744L390.472 37.8H397.64L385.48 73H376.904ZM418.13 73.896C408.53 73.896 400.978 67.048 400.978 55.464C400.978 44.008 408.85 36.904 417.042 36.904C426.322 36.904 431.378 43.624 431.378 53.608C431.378 55.08 431.25 56.488 431.058 57.384H408.21C408.786 64.104 413.01 68.072 419.09 68.072C422.226 68.072 424.85 67.112 427.474 65.448L430.034 70.184C426.77 72.36 422.738 73.896 418.13 73.896ZM408.082 52.264H424.978C424.978 46.184 422.29 42.728 417.17 42.728C412.754 42.728 408.85 46.12 408.082 52.264ZM439.66 73V37.8H445.676L446.316 44.136H446.508C449.004 39.592 452.716 36.904 456.492 36.904C458.22 36.904 459.308 37.16 460.396 37.672L459.116 44.072C457.9 43.688 457.004 43.496 455.532 43.496C452.716 43.496 449.26 45.544 447.084 51.112V73H439.66ZM465.848 73V37.8H471.864L472.504 42.728H472.696C475.896 39.528 479.544 36.904 484.344 36.904C491.832 36.904 495.16 41.96 495.16 50.856V73H487.736V51.816C487.736 45.672 485.944 43.304 481.848 43.304C478.584 43.304 476.344 44.968 473.272 48.04V73H465.848ZM514.105 73.896C508.089 73.896 503.801 69.864 503.801 63.656C503.801 56.104 510.201 52.2 524.793 50.6C524.729 46.504 523.257 42.92 518.137 42.92C514.425 42.92 510.905 44.648 507.961 46.568L505.209 41.512C508.793 39.272 513.785 36.904 519.417 36.904C528.185 36.904 532.217 42.472 532.217 51.88V73H526.137L525.561 69.032H525.305C522.105 71.784 518.329 73.896 514.105 73.896ZM516.409 68.008C519.481 68.008 521.913 66.6 524.793 63.912V55.336C514.361 56.552 510.905 59.176 510.905 63.144C510.905 66.6 513.273 68.008 516.409 68.008ZM542.598 73V37.8H548.614L549.254 42.728H549.446C552.646 39.528 556.294 36.904 561.094 36.904C568.582 36.904 571.91 41.96 571.91 50.856V73H564.486V51.816C564.486 45.672 562.694 43.304 558.598 43.304C555.334 43.304 553.094 44.968 550.022 48.04V73H542.598ZM596.871 73.896C587.399 73.896 580.103 67.112 580.103 55.464C580.103 43.688 588.231 36.904 597.511 36.904C601.991 36.904 605.255 38.696 607.751 41L604.167 45.736C602.247 44.072 600.263 43.048 597.895 43.048C591.879 43.048 587.719 47.976 587.719 55.464C587.719 62.888 591.751 67.816 597.639 67.816C600.583 67.816 603.207 66.408 605.319 64.616L608.327 69.544C605.127 72.36 600.967 73.896 596.871 73.896ZM628.38 73.896C618.78 73.896 611.228 67.048 611.228 55.464C611.228 44.008 619.1 36.904 627.292 36.904C636.572 36.904 641.628 43.624 641.628 53.608C641.628 55.08 641.5 56.488 641.308 57.384H618.46C619.036 64.104 623.26 68.072 629.34 68.072C632.476 68.072 635.1 67.112 637.724 65.448L640.284 70.184C637.02 72.36 632.988 73.896 628.38 73.896ZM618.332 52.264H635.228C635.228 46.184 632.54 42.728 627.42 42.728C623.004 42.728 619.1 46.12 618.332 52.264Z" fill="#79AD4B"/>
</svg>
