<svg width="63" height="67" viewBox="0 0 63 67" fill="none" xmlns="http://www.w3.org/2000/svg">
<path d="M61.307 61.3077C61.8478 61.6241 62.2706 61.9962 62.5512 62.4029C62.8318 62.8096 62.9648 63.2429 62.9426 63.6779C62.9203 64.113 62.7432 64.5414 62.4214 64.9387C62.0997 65.3359 61.6395 65.6943 61.0672 65.9932C60.4949 66.2922 59.8217 66.5259 59.086 66.681C58.3503 66.8362 57.5666 66.9097 56.7795 66.8974C55.9924 66.885 55.2174 66.7872 54.4988 66.6093C53.7801 66.4314 53.1319 66.177 52.5911 65.8607L1.63853 36.0379C0.586292 35.4227 0 34.6081 0 33.7614C0 32.9148 0.586292 32.1002 1.63853 31.485L52.5911 1.65888C53.1283 1.33559 53.7764 1.07454 54.4977 0.890884C55.219 0.70723 55.9991 0.60463 56.7927 0.589043C57.5864 0.573456 58.3777 0.645195 59.1207 0.800095C59.8638 0.954994 60.5438 1.18996 61.1211 1.49135C61.6985 1.79274 62.1618 2.15454 62.4841 2.55575C62.8064 2.95695 62.9813 3.38956 62.9986 3.82844C63.0159 4.26732 62.8752 4.70374 62.5848 5.11232C62.2944 5.5209 61.8601 5.89351 61.307 6.2085L14.2388 33.7614L61.307 61.3077Z" fill="black" fill-opacity="0.49"/>
</svg>
