<svg width="63" height="67" viewBox="0 0 63 67" fill="none" xmlns="http://www.w3.org/2000/svg">
<path d="M1.69302 5.59094C1.15221 5.27458 0.729427 4.90244 0.448795 4.49576C0.168163 4.08908 0.0351791 3.65583 0.0574455 3.22074C0.0797119 2.78566 0.256786 2.35725 0.57856 1.95999C0.900333 1.56273 1.3605 1.2044 1.93279 0.90545C2.50508 0.606499 3.1783 0.372787 3.91399 0.217657C4.64967 0.0625274 5.43343 -0.0109825 6.22051 0.00132546C7.00759 0.0136335 7.78258 0.111518 8.50122 0.28939C9.21987 0.467262 9.8681 0.721638 10.4089 1.038L61.3615 30.8608C62.4137 31.476 63 32.2906 63 33.1372C63 33.9839 62.4137 34.7985 61.3615 35.4137L10.4089 65.2398C9.87167 65.5631 9.22358 65.8241 8.50229 66.0078C7.781 66.1915 7.00089 66.2941 6.20726 66.3096C5.41364 66.3252 4.62231 66.2535 3.87926 66.0986C3.13622 65.9437 2.45625 65.7087 1.87886 65.4073C1.30148 65.1059 0.838177 64.7441 0.515881 64.3429C0.193584 63.9417 0.0187149 63.5091 0.00142288 63.0702C-0.0158691 62.6314 0.124763 62.1949 0.415157 61.7864C0.705551 61.3778 1.13992 61.0052 1.69302 60.6902L48.7612 33.1372L1.69302 5.59094Z" fill="black" fill-opacity="0.49"/>
</svg>
